<mxfile host="app.diagrams.net" modified="2021-08-25T06:01:37.603Z" agent="5.0 (Windows NT 10.0; Win64; x64) AppleWebKit/537.36 (KHTML, like Gecko) Chrome/92.0.4515.159 Safari/537.36" etag="oQAGwG4C-ObAzlmPawpW" version="14.6.13" type="github">
  <diagram id="C5RBs43oDa-KdzZeNtuy" name="Page-1">
    <mxGraphModel dx="1038" dy="588" grid="1" gridSize="10" guides="1" tooltips="1" connect="1" arrows="1" fold="1" page="1" pageScale="1" pageWidth="827" pageHeight="1169" math="0" shadow="0">
      <root>
        <mxCell id="WIyWlLk6GJQsqaUBKTNV-0" />
        <mxCell id="WIyWlLk6GJQsqaUBKTNV-1" parent="WIyWlLk6GJQsqaUBKTNV-0" />
        <mxCell id="KtXrkCt-lpu58uVXw5Zp-29" value="" style="swimlane;startSize=0;dashed=1;" vertex="1" parent="WIyWlLk6GJQsqaUBKTNV-1">
          <mxGeometry x="520" y="380" width="420" height="160" as="geometry" />
        </mxCell>
        <mxCell id="KtXrkCt-lpu58uVXw5Zp-31" value="&lt;font style=&quot;font-size: 14px&quot;&gt;&lt;b&gt;store server&lt;/b&gt;&lt;/font&gt;" style="text;html=1;align=center;verticalAlign=middle;resizable=0;points=[];autosize=1;strokeColor=none;" vertex="1" parent="KtXrkCt-lpu58uVXw5Zp-29">
          <mxGeometry x="173" y="130" width="100" height="20" as="geometry" />
        </mxCell>
        <mxCell id="KtXrkCt-lpu58uVXw5Zp-15" value="合成日行情写入共享内存" style="edgeStyle=orthogonalEdgeStyle;rounded=0;orthogonalLoop=1;jettySize=auto;html=1;" edge="1" parent="WIyWlLk6GJQsqaUBKTNV-1" source="KtXrkCt-lpu58uVXw5Zp-5" target="KtXrkCt-lpu58uVXw5Zp-6">
          <mxGeometry relative="1" as="geometry" />
        </mxCell>
        <mxCell id="KtXrkCt-lpu58uVXw5Zp-5" value="market_to_shm" style="html=1;outlineConnect=0;whiteSpace=wrap;fillColor=#99ffff;shape=mxgraph.archimate3.application;appType=proc;archiType=rounded;" vertex="1" parent="WIyWlLk6GJQsqaUBKTNV-1">
          <mxGeometry x="150" y="237.5" width="130" height="40" as="geometry" />
        </mxCell>
        <mxCell id="KtXrkCt-lpu58uVXw5Zp-13" value="" style="edgeStyle=orthogonalEdgeStyle;rounded=0;orthogonalLoop=1;jettySize=auto;html=1;" edge="1" parent="WIyWlLk6GJQsqaUBKTNV-1" source="KtXrkCt-lpu58uVXw5Zp-1" target="KtXrkCt-lpu58uVXw5Zp-5">
          <mxGeometry relative="1" as="geometry" />
        </mxCell>
        <mxCell id="KtXrkCt-lpu58uVXw5Zp-22" value="推送行情" style="edgeLabel;html=1;align=center;verticalAlign=middle;resizable=0;points=[];" vertex="1" connectable="0" parent="KtXrkCt-lpu58uVXw5Zp-13">
          <mxGeometry x="0.2548" y="-2" relative="1" as="geometry">
            <mxPoint x="2" y="-10" as="offset" />
          </mxGeometry>
        </mxCell>
        <mxCell id="KtXrkCt-lpu58uVXw5Zp-1" value="行情转发系统" style="aspect=fixed;perimeter=ellipsePerimeter;html=1;align=center;shadow=0;dashed=0;spacingTop=3;image;image=img/lib/active_directory/generic_server.svg;" vertex="1" parent="WIyWlLk6GJQsqaUBKTNV-1">
          <mxGeometry x="195" y="70" width="40" height="71.43" as="geometry" />
        </mxCell>
        <mxCell id="KtXrkCt-lpu58uVXw5Zp-4" value="RealTime SSDB" style="shape=datastore;whiteSpace=wrap;html=1;" vertex="1" parent="WIyWlLk6GJQsqaUBKTNV-1">
          <mxGeometry x="530" y="400" width="110" height="62.5" as="geometry" />
        </mxCell>
        <mxCell id="KtXrkCt-lpu58uVXw5Zp-6" value="SHM" style="shape=image;html=1;verticalAlign=top;verticalLabelPosition=bottom;labelBackgroundColor=#ffffff;imageAspect=0;aspect=fixed;image=https://cdn0.iconfinder.com/data/icons/simpline-mix/64/simpline_53-128.png" vertex="1" parent="WIyWlLk6GJQsqaUBKTNV-1">
          <mxGeometry x="165" y="371.25" width="100" height="100" as="geometry" />
        </mxCell>
        <mxCell id="KtXrkCt-lpu58uVXw5Zp-7" value="shm_to_ssdb" style="html=1;outlineConnect=0;whiteSpace=wrap;fillColor=#99ffff;shape=mxgraph.archimate3.application;appType=proc;archiType=rounded;" vertex="1" parent="WIyWlLk6GJQsqaUBKTNV-1">
          <mxGeometry x="320" y="237.5" width="130" height="40" as="geometry" />
        </mxCell>
        <mxCell id="KtXrkCt-lpu58uVXw5Zp-9" value="聚源数据库" style="outlineConnect=0;dashed=0;verticalLabelPosition=bottom;verticalAlign=top;align=center;html=1;shape=mxgraph.aws3.mysql_db_instance;fillColor=#2E73B8;gradientColor=none;" vertex="1" parent="WIyWlLk6GJQsqaUBKTNV-1">
          <mxGeometry x="850" y="389.5" width="80" height="63.5" as="geometry" />
        </mxCell>
        <mxCell id="KtXrkCt-lpu58uVXw5Zp-10" value="History SSDB" style="shape=datastore;whiteSpace=wrap;html=1;" vertex="1" parent="WIyWlLk6GJQsqaUBKTNV-1">
          <mxGeometry x="688" y="399" width="110" height="62.5" as="geometry" />
        </mxCell>
        <mxCell id="KtXrkCt-lpu58uVXw5Zp-12" value="futuredaily crawl_data" style="html=1;outlineConnect=0;whiteSpace=wrap;fillColor=#99ffff;shape=mxgraph.archimate3.application;appType=proc;archiType=rounded;" vertex="1" parent="WIyWlLk6GJQsqaUBKTNV-1">
          <mxGeometry x="673" y="237.5" width="140" height="40" as="geometry" />
        </mxCell>
        <mxCell id="KtXrkCt-lpu58uVXw5Zp-17" value="" style="endArrow=classic;html=1;entryX=0.5;entryY=1;entryDx=0;entryDy=0;entryPerimeter=0;" edge="1" parent="WIyWlLk6GJQsqaUBKTNV-1" source="KtXrkCt-lpu58uVXw5Zp-6" target="KtXrkCt-lpu58uVXw5Zp-7">
          <mxGeometry width="50" height="50" relative="1" as="geometry">
            <mxPoint x="390" y="420" as="sourcePoint" />
            <mxPoint x="440" y="370" as="targetPoint" />
          </mxGeometry>
        </mxCell>
        <mxCell id="KtXrkCt-lpu58uVXw5Zp-18" value="" style="endArrow=classic;html=1;entryX=0.402;entryY=0.032;entryDx=0;entryDy=0;entryPerimeter=0;exitX=0.538;exitY=1;exitDx=0;exitDy=0;exitPerimeter=0;" edge="1" parent="WIyWlLk6GJQsqaUBKTNV-1" source="KtXrkCt-lpu58uVXw5Zp-7" target="KtXrkCt-lpu58uVXw5Zp-4">
          <mxGeometry width="50" height="50" relative="1" as="geometry">
            <mxPoint x="440" y="370" as="sourcePoint" />
            <mxPoint x="390" y="420" as="targetPoint" />
          </mxGeometry>
        </mxCell>
        <mxCell id="KtXrkCt-lpu58uVXw5Zp-23" value="盘中每分钟读取共享内存数据写入SSDB&lt;br&gt;盘后 16:20 会再定时写入一遍" style="edgeLabel;html=1;align=center;verticalAlign=middle;resizable=0;points=[];" vertex="1" connectable="0" parent="KtXrkCt-lpu58uVXw5Zp-18">
          <mxGeometry x="-0.5433" y="-3" relative="1" as="geometry">
            <mxPoint x="-46" y="1" as="offset" />
          </mxGeometry>
        </mxCell>
        <mxCell id="KtXrkCt-lpu58uVXw5Zp-19" value="16:00~16:40 每10分钟&lt;br&gt;从历史库将数据拷贝到历史库" style="endArrow=classic;html=1;exitX=0.5;exitY=0;exitDx=0;exitDy=0;" edge="1" parent="WIyWlLk6GJQsqaUBKTNV-1" source="KtXrkCt-lpu58uVXw5Zp-4">
          <mxGeometry x="-0.2657" y="3" width="50" height="50" relative="1" as="geometry">
            <mxPoint x="570" y="400" as="sourcePoint" />
            <mxPoint x="720" y="280" as="targetPoint" />
            <mxPoint as="offset" />
          </mxGeometry>
        </mxCell>
        <mxCell id="KtXrkCt-lpu58uVXw5Zp-20" value="" style="endArrow=classic;html=1;entryX=0.5;entryY=0;entryDx=0;entryDy=0;exitX=0.5;exitY=1;exitDx=0;exitDy=0;exitPerimeter=0;" edge="1" parent="WIyWlLk6GJQsqaUBKTNV-1" source="KtXrkCt-lpu58uVXw5Zp-12" target="KtXrkCt-lpu58uVXw5Zp-10">
          <mxGeometry x="-0.5349" y="-33" width="50" height="50" relative="1" as="geometry">
            <mxPoint x="660" y="280" as="sourcePoint" />
            <mxPoint x="570" y="400" as="targetPoint" />
            <mxPoint as="offset" />
          </mxGeometry>
        </mxCell>
        <mxCell id="KtXrkCt-lpu58uVXw5Zp-27" value="14:50使用聚源数据&lt;br&gt;填充历史SSDb中的空字段" style="endArrow=classic;html=1;" edge="1" parent="WIyWlLk6GJQsqaUBKTNV-1" target="KtXrkCt-lpu58uVXw5Zp-12">
          <mxGeometry x="-0.2392" y="4" width="50" height="50" relative="1" as="geometry">
            <mxPoint x="890" y="390" as="sourcePoint" />
            <mxPoint x="750" y="280" as="targetPoint" />
            <mxPoint as="offset" />
          </mxGeometry>
        </mxCell>
        <mxCell id="KtXrkCt-lpu58uVXw5Zp-28" value="" style="swimlane;startSize=0;strokeColor=#666666;fontColor=#333333;fillColor=#f5f5f5;dashed=1;" vertex="1" parent="WIyWlLk6GJQsqaUBKTNV-1">
          <mxGeometry x="110" y="210" width="390" height="330" as="geometry">
            <mxRectangle x="110" y="210" width="50" height="40" as="alternateBounds" />
          </mxGeometry>
        </mxCell>
        <mxCell id="KtXrkCt-lpu58uVXw5Zp-30" value="&lt;font style=&quot;font-size: 14px&quot;&gt;&lt;b&gt;jqdata-server05&lt;/b&gt;&lt;/font&gt;" style="text;html=1;align=center;verticalAlign=middle;resizable=0;points=[];autosize=1;strokeColor=none;" vertex="1" parent="WIyWlLk6GJQsqaUBKTNV-1">
          <mxGeometry x="220" y="510" width="120" height="20" as="geometry" />
        </mxCell>
        <mxCell id="KtXrkCt-lpu58uVXw5Zp-32" value="" style="swimlane;startSize=0;dashed=1;fillColor=#ffffff;gradientColor=none;" vertex="1" parent="WIyWlLk6GJQsqaUBKTNV-1">
          <mxGeometry x="520" y="210" width="420" height="100" as="geometry" />
        </mxCell>
        <mxCell id="KtXrkCt-lpu58uVXw5Zp-33" value="&lt;font style=&quot;font-size: 14px&quot;&gt;&lt;b&gt;dt-crawl00&lt;/b&gt;&lt;/font&gt;" style="text;html=1;align=center;verticalAlign=middle;resizable=0;points=[];autosize=1;strokeColor=none;" vertex="1" parent="KtXrkCt-lpu58uVXw5Zp-32">
          <mxGeometry x="325" y="40" width="90" height="20" as="geometry" />
        </mxCell>
        <mxCell id="KtXrkCt-lpu58uVXw5Zp-35" value="&lt;font style=&quot;font-size: 24px&quot; face=&quot;Comic Sans MS&quot;&gt;&lt;b&gt;期货日行情处理流程&lt;/b&gt;&lt;/font&gt;" style="text;html=1;align=center;verticalAlign=middle;resizable=0;points=[];autosize=1;strokeColor=none;" vertex="1" parent="WIyWlLk6GJQsqaUBKTNV-1">
          <mxGeometry x="440" y="120" width="230" height="20" as="geometry" />
        </mxCell>
      </root>
    </mxGraphModel>
  </diagram>
</mxfile>
